<svg width="1396" height="698" viewBox="0 0 1396 698" fill="none" xmlns="http://www.w3.org/2000/svg">
<path d="M697.996 0C636.273 0 576.423 8.01992 519.425 23.0593C802.695 101.247 1017.26 369.845 1044.14 697.981H1396C1396 312.497 1083.49 1.12435e-05 697.996 0Z" fill="#2C4A7C"/>
<path d="M42.5756 457.41C15.0398 532.404 5.61446e-05 613.432 5.36786e-05 697.974H272.358C246.87 570.393 153.016 476.811 42.5756 457.41Z" fill="#16233D"/>
<path d="M174.488 258.254C168.149 258.254 161.834 258.408 155.545 258.704C122.465 299.5 93.9005 344.102 70.5982 391.75C209.066 423.046 317.608 544.558 343.229 697.982H624.012C593.405 444.587 398.461 258.254 174.488 258.254Z" fill="#2C4A7C"/>
<path d="M390.316 71.3302C327.173 102.39 269.41 142.709 218.794 190.519C466.291 213.465 664.822 426.952 694.234 698H974.118C943.769 355.65 692.506 93.3939 390.316 71.3302Z" fill="#16233D"/>
</svg>
